<?xml version="1.0" encoding="UTF-8"?>
<svg xmlns="http://www.w3.org/2000/svg" width="2048" height="457" viewBox="0 0 2048 457" role="img" aria-label="GARIM wordmark">
  <defs>
    <linearGradient id="baseGradient" x1="0" y1="0" x2="2048" y2="0" gradientUnits="userSpaceOnUse">
      <stop offset="0%" stop-color="#B683E7"/>
      <stop offset="44%" stop-color="#B581E5"/>
      <stop offset="100%" stop-color="#8B46D3"/>
    </linearGradient>
    <radialGradient id="bottomGlow" cx="17%" cy="87%" r="60%">
      <stop offset="0%" stop-color="#E4C0F6" stop-opacity="0.95"/>
      <stop offset="35%" stop-color="#D8B6F2" stop-opacity="0.55"/>
      <stop offset="100%" stop-color="#FFFFFF" stop-opacity="0"/>
    </radialGradient>
    <clipPath id="wordClip">
      <path d="M1546 10 L1546 88 L1576 91 L1585 100 L1588 110 L1588 345 L1585 356 L1576 365 L1546 368 L1546 447 L1752 446 L1751 368 L1725 367 L1714 359 L1710 350 L1711 200 L1760 313 L1833 313 L1882 200 L1883 350 L1880 358 L1868 367 L1841 368 L1842 447 L2047 446 L2047 368 L2025 368 L2015 364 L2006 347 L2006 109 L2012 95 L2019 90 L2047 88 L2047 10 L1885 10 L1797 211 L1709 10 Z M1318 10 L1319 89 L1345 90 L1356 99 L1359 105 L1359 350 L1355 359 L1344 367 L1318 368 L1319 447 L1526 446 L1525 368 L1504 368 L1492 363 L1486 355 L1484 346 L1484 111 L1486 102 L1493 93 L1503 89 L1526 88 L1526 10 Z M885 10 L885 89 L912 90 L923 98 L927 110 L927 347 L922 360 L914 366 L885 368 L886 447 L1080 446 L1080 368 L1061 367 L1054 361 L1052 355 L1053 297 L1100 297 L1141 368 L1121 368 L1122 447 L1298 446 L1298 368 L1277 368 L1260 362 L1250 350 L1210 282 L1241 263 L1263 242 L1280 215 L1289 189 L1293 162 L1293 140 L1289 111 L1275 75 L1260 55 L1235 35 L1211 23 L1180 14 L1152 10 Z M1053 89 L1124 89 L1131 90 L1145 95 L1151 99 L1159 107 L1166 121 L1168 130 L1169 165 L1166 183 L1162 193 L1151 207 L1138 215 L1121 219 L1052 218 Z M591 11 L475 349 L470 358 L460 366 L422 368 L422 447 L619 447 L619 368 L595 365 L608 320 L697 320 L710 365 L709 368 L685 368 L685 447 L882 446 L882 368 L852 368 L843 366 L834 359 L827 346 L714 10 Z M654 170 L663 199 L665 210 L668 217 L670 228 L672 231 L675 246 L677 249 L678 253 L677 257 L627 256 L629 248 L631 245 L634 231 L637 225 L638 218 L640 215 L642 205 L646 195 L647 188 L649 185 L651 175 Z M103 28 L68 53 L37 89 L15 134 L3 181 L0 205 L0 257 L5 291 L22 341 L48 382 L74 408 L105 429 L149 447 L196 456 L271 456 L319 448 L368 431 L411 406 L411 201 L208 201 L208 279 L287 280 L286 373 L274 376 L209 376 L186 368 L167 356 L150 338 L137 315 L126 277 L123 246 L125 192 L134 152 L149 121 L173 95 L191 85 L208 80 L251 80 L269 87 L269 136 L394 136 L394 43 L357 21 L327 10 L263 0 L201 0 L171 4 L134 14 Z" fill-rule="evenodd"/>
    </clipPath>
    <radialGradient id="flare1" cx="61.7%" cy="23.3%" r="18%">
      <stop offset="0%" stop-color="#FFFFFF" stop-opacity="0.95"/>
      <stop offset="8%" stop-color="#FFFFFF" stop-opacity="0.65"/>
      <stop offset="15%" stop-color="#FFFFFF" stop-opacity="0.14"/>
      <stop offset="100%" stop-color="#FFFFFF" stop-opacity="0"/>
    </radialGradient>
    <radialGradient id="flare2" cx="69.2%" cy="31%" r="16%">
      <stop offset="0%" stop-color="#7B2ED4" stop-opacity="0.65"/>
      <stop offset="35%" stop-color="#7B2ED4" stop-opacity="0.18"/>
      <stop offset="100%" stop-color="#7B2ED4" stop-opacity="0"/>
    </radialGradient>
    <linearGradient id="sheen1" x1="1085.44" y1="63.980000000000004" x2="1392.64" y2="242.21" gradientUnits="userSpaceOnUse">
      <stop offset="0%" stop-color="#FFFFFF" stop-opacity="0"/>
      <stop offset="44%" stop-color="#FFFFFF" stop-opacity="0.35"/>
      <stop offset="52%" stop-color="#FFFFFF" stop-opacity="0.10"/>
      <stop offset="100%" stop-color="#FFFFFF" stop-opacity="0"/>
    </linearGradient>
    <linearGradient id="flareLeftSheen" x1="1167.36" y1="41.129999999999995" x2="1454.08" y2="182.8" gradientUnits="userSpaceOnUse">
      <stop offset="0%" stop-color="#FFFFFF" stop-opacity="0"/>
      <stop offset="46%" stop-color="#FFFFFF" stop-opacity="0.52"/>
      <stop offset="50%" stop-color="#FFFFFF" stop-opacity="0.90"/>
      <stop offset="54%" stop-color="#FFFFFF" stop-opacity="0.20"/>
      <stop offset="100%" stop-color="#FFFFFF" stop-opacity="0"/>
    </linearGradient>
  </defs>

  <path d="M1546 10 L1546 88 L1576 91 L1585 100 L1588 110 L1588 345 L1585 356 L1576 365 L1546 368 L1546 447 L1752 446 L1751 368 L1725 367 L1714 359 L1710 350 L1711 200 L1760 313 L1833 313 L1882 200 L1883 350 L1880 358 L1868 367 L1841 368 L1842 447 L2047 446 L2047 368 L2025 368 L2015 364 L2006 347 L2006 109 L2012 95 L2019 90 L2047 88 L2047 10 L1885 10 L1797 211 L1709 10 Z M1318 10 L1319 89 L1345 90 L1356 99 L1359 105 L1359 350 L1355 359 L1344 367 L1318 368 L1319 447 L1526 446 L1525 368 L1504 368 L1492 363 L1486 355 L1484 346 L1484 111 L1486 102 L1493 93 L1503 89 L1526 88 L1526 10 Z M885 10 L885 89 L912 90 L923 98 L927 110 L927 347 L922 360 L914 366 L885 368 L886 447 L1080 446 L1080 368 L1061 367 L1054 361 L1052 355 L1053 297 L1100 297 L1141 368 L1121 368 L1122 447 L1298 446 L1298 368 L1277 368 L1260 362 L1250 350 L1210 282 L1241 263 L1263 242 L1280 215 L1289 189 L1293 162 L1293 140 L1289 111 L1275 75 L1260 55 L1235 35 L1211 23 L1180 14 L1152 10 Z M1053 89 L1124 89 L1131 90 L1145 95 L1151 99 L1159 107 L1166 121 L1168 130 L1169 165 L1166 183 L1162 193 L1151 207 L1138 215 L1121 219 L1052 218 Z M591 11 L475 349 L470 358 L460 366 L422 368 L422 447 L619 447 L619 368 L595 365 L608 320 L697 320 L710 365 L709 368 L685 368 L685 447 L882 446 L882 368 L852 368 L843 366 L834 359 L827 346 L714 10 Z M654 170 L663 199 L665 210 L668 217 L670 228 L672 231 L675 246 L677 249 L678 253 L677 257 L627 256 L629 248 L631 245 L634 231 L637 225 L638 218 L640 215 L642 205 L646 195 L647 188 L649 185 L651 175 Z M103 28 L68 53 L37 89 L15 134 L3 181 L0 205 L0 257 L5 291 L22 341 L48 382 L74 408 L105 429 L149 447 L196 456 L271 456 L319 448 L368 431 L411 406 L411 201 L208 201 L208 279 L287 280 L286 373 L274 376 L209 376 L186 368 L167 356 L150 338 L137 315 L126 277 L123 246 L125 192 L134 152 L149 121 L173 95 L191 85 L208 80 L251 80 L269 87 L269 136 L394 136 L394 43 L357 21 L327 10 L263 0 L201 0 L171 4 L134 14 Z" fill="url(#baseGradient)" fill-rule="evenodd"/>
  <path d="M1546 10 L1546 88 L1576 91 L1585 100 L1588 110 L1588 345 L1585 356 L1576 365 L1546 368 L1546 447 L1752 446 L1751 368 L1725 367 L1714 359 L1710 350 L1711 200 L1760 313 L1833 313 L1882 200 L1883 350 L1880 358 L1868 367 L1841 368 L1842 447 L2047 446 L2047 368 L2025 368 L2015 364 L2006 347 L2006 109 L2012 95 L2019 90 L2047 88 L2047 10 L1885 10 L1797 211 L1709 10 Z M1318 10 L1319 89 L1345 90 L1356 99 L1359 105 L1359 350 L1355 359 L1344 367 L1318 368 L1319 447 L1526 446 L1525 368 L1504 368 L1492 363 L1486 355 L1484 346 L1484 111 L1486 102 L1493 93 L1503 89 L1526 88 L1526 10 Z M885 10 L885 89 L912 90 L923 98 L927 110 L927 347 L922 360 L914 366 L885 368 L886 447 L1080 446 L1080 368 L1061 367 L1054 361 L1052 355 L1053 297 L1100 297 L1141 368 L1121 368 L1122 447 L1298 446 L1298 368 L1277 368 L1260 362 L1250 350 L1210 282 L1241 263 L1263 242 L1280 215 L1289 189 L1293 162 L1293 140 L1289 111 L1275 75 L1260 55 L1235 35 L1211 23 L1180 14 L1152 10 Z M1053 89 L1124 89 L1131 90 L1145 95 L1151 99 L1159 107 L1166 121 L1168 130 L1169 165 L1166 183 L1162 193 L1151 207 L1138 215 L1121 219 L1052 218 Z M591 11 L475 349 L470 358 L460 366 L422 368 L422 447 L619 447 L619 368 L595 365 L608 320 L697 320 L710 365 L709 368 L685 368 L685 447 L882 446 L882 368 L852 368 L843 366 L834 359 L827 346 L714 10 Z M654 170 L663 199 L665 210 L668 217 L670 228 L672 231 L675 246 L677 249 L678 253 L677 257 L627 256 L629 248 L631 245 L634 231 L637 225 L638 218 L640 215 L642 205 L646 195 L647 188 L649 185 L651 175 Z M103 28 L68 53 L37 89 L15 134 L3 181 L0 205 L0 257 L5 291 L22 341 L48 382 L74 408 L105 429 L149 447 L196 456 L271 456 L319 448 L368 431 L411 406 L411 201 L208 201 L208 279 L287 280 L286 373 L274 376 L209 376 L186 368 L167 356 L150 338 L137 315 L126 277 L123 246 L125 192 L134 152 L149 121 L173 95 L191 85 L208 80 L251 80 L269 87 L269 136 L394 136 L394 43 L357 21 L327 10 L263 0 L201 0 L171 4 L134 14 Z" fill="url(#bottomGlow)" fill-rule="evenodd" opacity="0.88"/>

  <g clip-path="url(#wordClip)">
    <rect x="0" y="0" width="2048" height="457" fill="url(#flare2)"/>
    <rect x="0" y="0" width="2048" height="457" fill="url(#sheen1)"/>
    <rect x="0" y="0" width="2048" height="457" fill="url(#flareLeftSheen)"/>
    <rect x="0" y="0" width="2048" height="457" fill="url(#flare1)"/>
  </g>
</svg>
