<?xml version="1.0" encoding="UTF-8"?>
<svg xmlns="http://www.w3.org/2000/svg" width="793" height="811" viewBox="0 0 793 811" role="img" aria-label="GARIM logo">
  <defs>
    <linearGradient id="baseGradient" x1="0" y1="0" x2="793" y2="811" gradientUnits="userSpaceOnUse">
      <stop offset="0%" stop-color="#B480E6"/>
      <stop offset="42%" stop-color="#CEA4EC"/>
      <stop offset="70%" stop-color="#A76DE1"/>
      <stop offset="100%" stop-color="#9153D3"/>
    </linearGradient>
    <clipPath id="logoClip">
      <path d="M0 400 L0 585 L2 604 L7 632 L17 665 L27 684 L42 699 L54 704 L95 705 L153 702 L220 693 L261 684 L308 669 L345 652 L371 635 L349 634 L323 630 L282 620 L252 610 L216 595 L192 583 L161 565 L116 533 L86 507 L64 485 L34 450 L17 427 Z M788 305 L439 304 L408 311 L387 322 L367 344 L357 379 L358 401 L362 416 L369 429 L384 444 L408 456 L433 461 L474 459 L583 459 L585 461 L576 513 L555 563 L526 605 L492 640 L459 666 L415 693 L371 714 L300 739 L221 757 L139 765 L136 770 L137 776 L146 784 L163 791 L235 803 L462 808 L608 804 L651 792 L689 770 L720 741 L748 702 L773 649 L790 585 L790 310 Z M770 125 L756 101 L745 90 L734 84 L726 82 L664 82 L609 87 L550 97 L490 113 L447 129 L406 149 L374 169 L345 192 L323 214 L297 249 L283 275 L271 307 L266 331 L274 310 L288 288 L316 258 L349 235 L382 221 L788 221 L788 205 L784 174 L778 148 Z M214 1 L160 26 L109 58 L79 82 L53 108 L32 135 L11 175 L0 220 L1 263 L12 305 L40 359 L86 416 L147 472 L238 538 L291 564 L343 578 L390 580 L435 570 L472 550 L499 525 L421 534 L391 535 L347 531 L326 522 L300 504 L268 473 L254 455 L232 417 L216 367 L213 305 L221 263 L241 225 L275 181 L321 138 L383 97 L450 67 L512 49 L548 42 L647 42 L647 38 L638 24 L618 11 L592 3 L570 0 Z" fill-rule="evenodd"/>
    </clipPath>
    <linearGradient id="shine1" x1="459.93999999999994" y1="145.98" x2="586.8199999999999" y2="470.38" gradientUnits="userSpaceOnUse">
      <stop offset="0%" stop-color="#FFFFFF" stop-opacity="0"/>
      <stop offset="45%" stop-color="#FFFFFF" stop-opacity="0.28"/>
      <stop offset="55%" stop-color="#FFFFFF" stop-opacity="0.04"/>
      <stop offset="100%" stop-color="#FFFFFF" stop-opacity="0"/>
    </linearGradient>
    <linearGradient id="shine2" x1="95.16" y1="583.92" x2="269.62" y2="770.4499999999999" gradientUnits="userSpaceOnUse">
      <stop offset="0%" stop-color="#FFFFFF" stop-opacity="0"/>
      <stop offset="45%" stop-color="#FFFFFF" stop-opacity="0.34"/>
      <stop offset="55%" stop-color="#FFFFFF" stop-opacity="0.05"/>
      <stop offset="100%" stop-color="#FFFFFF" stop-opacity="0"/>
    </linearGradient>
  </defs>
  <path d="M0 400 L0 585 L2 604 L7 632 L17 665 L27 684 L42 699 L54 704 L95 705 L153 702 L220 693 L261 684 L308 669 L345 652 L371 635 L349 634 L323 630 L282 620 L252 610 L216 595 L192 583 L161 565 L116 533 L86 507 L64 485 L34 450 L17 427 Z M788 305 L439 304 L408 311 L387 322 L367 344 L357 379 L358 401 L362 416 L369 429 L384 444 L408 456 L433 461 L474 459 L583 459 L585 461 L576 513 L555 563 L526 605 L492 640 L459 666 L415 693 L371 714 L300 739 L221 757 L139 765 L136 770 L137 776 L146 784 L163 791 L235 803 L462 808 L608 804 L651 792 L689 770 L720 741 L748 702 L773 649 L790 585 L790 310 Z M770 125 L756 101 L745 90 L734 84 L726 82 L664 82 L609 87 L550 97 L490 113 L447 129 L406 149 L374 169 L345 192 L323 214 L297 249 L283 275 L271 307 L266 331 L274 310 L288 288 L316 258 L349 235 L382 221 L788 221 L788 205 L784 174 L778 148 Z M214 1 L160 26 L109 58 L79 82 L53 108 L32 135 L11 175 L0 220 L1 263 L12 305 L40 359 L86 416 L147 472 L238 538 L291 564 L343 578 L390 580 L435 570 L472 550 L499 525 L421 534 L391 535 L347 531 L326 522 L300 504 L268 473 L254 455 L232 417 L216 367 L213 305 L221 263 L241 225 L275 181 L321 138 L383 97 L450 67 L512 49 L548 42 L647 42 L647 38 L638 24 L618 11 L592 3 L570 0 Z" fill="url(#baseGradient)" fill-rule="evenodd"/>
  <g clip-path="url(#logoClip)">
    <rect x="0" y="0" width="793" height="811" fill="url(#shine1)"/>
    <rect x="0" y="0" width="793" height="811" fill="url(#shine2)"/>
  </g>
</svg>
