<svg width="665" height="90" viewBox="0 0 665 90" fill="none" xmlns="http://www.w3.org/2000/svg">
<path d="M571.301 58.63V89.13H554.491L554.001 84.38C553.741 81.77 553.581 61.85 553.661 40.13L553.801 0.630005L573.801 0.169983L578.701 7.40002C581.391 11.38 589.261 22.66 596.171 32.48L608.741 50.32L610.771 47.81C611.891 46.43 619.771 35.15 628.301 22.75L643.801 0.200012L654.051 0.160034L664.301 0.130005V89.13H646.331L646.061 57.88L645.801 26.63L635.121 41.63C629.241 49.88 622.271 59.69 619.621 63.44C616.971 67.18 614.211 70.89 613.481 71.69C612.111 73.19 608.051 73.49 605.101 72.31C603.641 71.73 587.531 49.91 576.301 33.31C574.381 30.46 572.461 28.13 572.051 28.13C571.641 28.13 571.301 41.85 571.301 58.63ZM101.301 40.13V89.13L67.0514 89.08C37.1414 89.03 32.1014 88.8 27.3014 87.26C7.19139 80.79 -2.34861 62.76 0.491393 36.63C2.53139 17.86 14.4914 4.48001 32.1914 1.14001C35.1514 0.590015 51.9314 0.130005 69.4814 0.130005H101.381L100.801 16.63L66.8014 17.13C28.9914 17.69 29.3314 17.63 23.4914 24.72C19.6514 29.37 17.9814 35.46 17.9314 45C17.8514 58.12 21.5914 65.56 30.7114 70.44C34.6014 72.52 36.0014 72.63 59.3014 72.63H83.8014L84.3814 56.13H48.3014V40.13H101.301ZM339.301 17.13V89.13H321.301V0L359.051 0.320007L396.801 0.630005L402.451 3.40002C411.971 8.08002 416.301 15.94 416.291 28.51C416.291 37.56 415.031 42.01 410.991 47.31C407.061 52.47 398.611 57.13 393.191 57.13C391.051 57.13 389.301 57.4 389.301 57.74C389.301 58.07 395.891 65.16 403.951 73.49L418.611 88.63L407.251 88.91L395.891 89.2L391.141 84.41C388.531 81.78 378.991 71.53 369.951 61.63L353.501 43.63L371.831 43.13C388.411 42.68 390.431 42.43 392.981 40.54C399.111 36 399.791 25.46 394.301 19.98L391.451 17.13H339.301ZM178.351 78.86L172.801 89.1L162.971 89.11C157.561 89.12 153.281 88.76 153.471 88.31C153.941 87.15 199.281 5.12 200.961 2.38C202.241 0.300005 203.071 0.130005 211.781 0.130005H221.221L223.621 4.38C224.941 6.72001 235.141 25.28 246.281 45.63C257.431 65.98 267.381 84.09 268.391 85.88L270.231 89.13H250.481L244.481 78.38C241.171 72.47 232.621 57.07 225.471 44.16C218.321 31.25 212.071 20.55 211.591 20.39C210.831 20.14 196.891 44.66 178.351 78.86ZM493.301 0.130005V89.13H475.301V0.130005H493.301Z" fill="#4E15BD"/>
<path d="M218.472 79.3999C213.052 83.8499 206.472 82.8399 201.912 76.8599C195.562 68.5399 201.362 58.1299 212.352 58.1299C215.742 58.1299 217.132 58.7599 219.902 61.5299C222.842 64.4699 223.302 65.5899 223.282 69.7799C223.272 75.2499 223.092 75.5999 218.472 79.3999Z" fill="#712AE6"/>
</svg>
