<svg width="15" height="24" viewBox="0 0 15 24" fill="none" xmlns="http://www.w3.org/2000/svg">
<path d="M4.71875 15.8125C4.75 11.9375 5.78125 10.7188 7.65625 9.5625C9 8.6875 10.0312 7.71875 10.0312 6.28125C10.0312 4.71875 8.8125 3.6875 7.3125 3.6875C5.84375 3.6875 4.5 4.65625 4.4375 6.5H0C0.09375 2.09375 3.34375 0 7.34375 0C11.6875 0 14.7812 2.28125 14.7812 6.125C14.7812 8.6875 13.4688 10.3438 11.4062 11.5625C9.65625 12.625 8.875 13.625 8.84375 15.8125V16.1562H4.71875V15.8125ZM6.875 23.2188C5.40625 23.2188 4.21875 22.0312 4.25 20.5938C4.21875 19.1562 5.40625 18 6.875 18C8.25 18 9.46875 19.1562 9.46875 20.5938C9.46875 22.0312 8.25 23.2188 6.875 23.2188Z" fill="white"/>
</svg>
