<svg width="278" height="54" viewBox="0 0 278 54" fill="none" xmlns="http://www.w3.org/2000/svg">
<g filter="url(#filter0_dd_1622_10200)">
<path d="M125.282 39.15H135.427C138.302 39.15 140.823 38.7855 142.989 38.0566C145.156 37.3074 146.958 36.2545 148.396 34.8979C149.854 33.5412 150.947 31.9011 151.676 29.9775C152.405 28.054 152.769 25.9076 152.769 23.5386C152.769 21.21 152.405 19.1143 151.676 17.2515C150.947 15.3684 149.854 13.7789 148.396 12.483C146.958 11.1669 145.156 10.1545 142.989 9.44581C140.823 8.73712 138.302 8.38278 135.427 8.38278H125.282V14.9293H115.654V0H133.058C138.14 0 142.554 0.546703 146.3 1.64011C150.046 2.73351 153.144 4.30275 155.594 6.34783C158.064 8.37265 159.897 10.8429 161.091 13.7587C162.306 16.6542 162.914 19.9142 162.914 23.5386C162.914 26.9808 162.316 30.1699 161.122 33.1059C159.927 36.0216 158.105 38.5527 155.655 40.699C153.205 42.825 150.107 44.4955 146.361 45.7104C142.615 46.9051 138.201 47.5024 133.118 47.5024L115.654 47.472V18.3224H125.282V39.15Z" fill="#5AD0DE"/>
<path d="M69.1836 39.3593L72.5764 31.5566H87.5059L90.899 39.3593H69.1836Z" fill="#5AD0DE"/>
<path d="M182.592 39.3593L185.985 31.5566H200.914L204.307 39.3593H182.592Z" fill="#5AD0DE"/>
<path d="M94.3639 39.4841L90.5673 31.5569L80.3015 9.99251L70.3089 31.5569L66.6339 39.4841L62.9588 47.472H52.8145L75.1078 0H85.3129L108.274 47.472H98.1604L94.3639 39.4841Z" fill="#5AD0DE"/>
<path d="M207.774 39.4841L203.977 31.5569L193.712 9.99251L183.719 31.5569L180.044 39.4841L176.369 47.472H166.225L188.518 0H198.723L221.685 47.472H211.571L207.774 39.4841Z" fill="#5AD0DE"/>
<path d="M11.628 25.6343H26.389C28.2114 25.6343 29.8009 25.4217 31.1575 24.9965C32.5344 24.5713 33.6784 23.9739 34.5896 23.2045C35.521 22.4351 36.2094 21.5036 36.6549 20.4102C37.1206 19.2966 37.3535 18.0614 37.3535 16.7048C37.3535 14.0523 36.4423 12.0072 34.6199 10.5696C32.7976 9.11171 30.054 8.38278 26.389 8.38278H11.628H2V0H26.1461C29.7907 0 32.9495 0.384717 35.6222 1.15415C38.295 1.90334 40.5122 2.99674 42.2738 4.43437C44.0354 5.87199 45.3414 7.62347 46.1918 9.68879C47.0625 11.7541 47.4978 14.0928 47.4978 16.7048C47.4978 18.4664 47.2852 20.147 46.86 21.7466C46.4348 23.326 45.7767 24.7839 44.8858 26.1202C44.0151 27.4566 42.9116 28.6513 41.5752 29.7042C40.2388 30.7368 38.6696 31.5974 36.8675 32.2858L47.1941 47.472H35.4096L26.4801 33.9867H26.2068L11.628 33.9563V47.472H2V25.6343H11.628Z" fill="#5AD0DE"/>
<path d="M239.64 25.6343H254.401C256.223 25.6343 257.813 25.4217 259.169 24.9965C260.546 24.5713 261.69 23.9739 262.601 23.2045C263.533 22.4351 264.221 21.5036 264.667 20.4102C265.132 19.2966 265.365 18.0614 265.365 16.7048C265.365 14.0523 264.454 12.0072 262.632 10.5696C260.809 9.11171 258.066 8.38278 254.401 8.38278H239.64H230.012V0H254.158C257.802 0 260.961 0.384717 263.634 1.15415C266.307 1.90334 268.524 2.99674 270.286 4.43437C272.047 5.87199 273.353 7.62347 274.204 9.68879C275.074 11.7541 275.51 14.0928 275.51 16.7048C275.51 18.4664 275.297 20.147 274.872 21.7466C274.447 23.326 273.788 24.7839 272.898 26.1202C272.027 27.4566 270.923 28.6513 269.587 29.7042C268.251 30.7368 266.681 31.5974 264.879 32.2858L275.206 47.472H263.421L254.492 33.9867H254.219L239.64 33.9563V47.472H230.012V25.6343H239.64Z" fill="#5AD0DE"/>
</g>
<defs>
<filter id="filter0_dd_1622_10200" x="0" y="0" width="277.51" height="53.502" filterUnits="userSpaceOnUse" color-interpolation-filters="sRGB">
<feFlood flood-opacity="0" result="BackgroundImageFix"/>
<feColorMatrix in="SourceAlpha" type="matrix" values="0 0 0 0 0 0 0 0 0 0 0 0 0 0 0 0 0 0 127 0" result="hardAlpha"/>
<feMorphology radius="2" operator="erode" in="SourceAlpha" result="effect1_dropShadow_1622_10200"/>
<feOffset dy="4"/>
<feGaussianBlur stdDeviation="2"/>
<feColorMatrix type="matrix" values="0 0 0 0 0.0745098 0 0 0 0 0.0980392 0 0 0 0 0.152941 0 0 0 0.08 0"/>
<feBlend mode="normal" in2="BackgroundImageFix" result="effect1_dropShadow_1622_10200"/>
<feColorMatrix in="SourceAlpha" type="matrix" values="0 0 0 0 0 0 0 0 0 0 0 0 0 0 0 0 0 0 127 0" result="hardAlpha"/>
<feMorphology radius="2" operator="erode" in="SourceAlpha" result="effect2_dropShadow_1622_10200"/>
<feOffset dy="2"/>
<feGaussianBlur stdDeviation="2"/>
<feColorMatrix type="matrix" values="0 0 0 0 0.0745098 0 0 0 0 0.0980392 0 0 0 0 0.152941 0 0 0 0.12 0"/>
<feBlend mode="normal" in2="effect1_dropShadow_1622_10200" result="effect2_dropShadow_1622_10200"/>
<feBlend mode="normal" in="SourceGraphic" in2="effect2_dropShadow_1622_10200" result="shape"/>
</filter>
</defs>
</svg>
