<svg width="17" height="17" viewBox="0 0 17 17" fill="none" xmlns="http://www.w3.org/2000/svg">
<path fill-rule="evenodd" clip-rule="evenodd" d="M9.89245 0.447406C9.96427 0.58691 9.98243 0.766038 10.0179 1.12429C10.0856 1.80118 10.1195 2.13962 10.2614 2.32618C10.3499 2.44201 10.4675 2.53236 10.6021 2.58803C10.7368 2.64371 10.8839 2.66273 11.0283 2.64316C11.2594 2.61262 11.5236 2.39717 12.0502 1.96627C12.3284 1.73762 12.4679 1.6237 12.6173 1.57583C12.8076 1.51502 13.0135 1.52528 13.1968 1.60472C13.3413 1.66745 13.4692 1.79458 13.7226 2.04882L14.4606 2.78679C14.7149 3.04104 14.842 3.16816 14.9047 3.31262C14.9841 3.49592 14.9944 3.70181 14.9336 3.8921C14.8857 4.04151 14.7718 4.18101 14.544 4.4592C14.1123 4.98667 13.8968 5.25 13.8654 5.48196C13.8461 5.62633 13.8653 5.77324 13.9212 5.90779C13.977 6.04233 14.0674 6.1597 14.1833 6.248C14.369 6.38998 14.7083 6.42382 15.386 6.49151C15.7434 6.527 15.9225 6.54516 16.0629 6.61698C16.2399 6.70877 16.3777 6.86154 16.4508 7.04705C16.5094 7.19316 16.5094 7.37311 16.5094 7.73302V8.77642C16.5094 9.13632 16.5094 9.31627 16.4517 9.46156C16.3783 9.64765 16.2398 9.80077 16.062 9.89245C15.9225 9.96427 15.7434 9.98243 15.3851 10.0179C14.7083 10.0856 14.3698 10.1195 14.1833 10.2614C14.0674 10.3499 13.9771 10.4675 13.9214 10.6021C13.8657 10.7368 13.8467 10.8839 13.8663 11.0283C13.8976 11.2594 14.1131 11.5236 14.544 12.0502C14.7718 12.3284 14.8857 12.4671 14.9336 12.6173C14.9944 12.8076 14.9841 13.0135 14.9047 13.1968C14.842 13.3413 14.7149 13.4684 14.4606 13.7226L13.7226 14.4598C13.4684 14.7149 13.3413 14.842 13.1968 14.9039C13.0135 14.9833 12.8076 14.9936 12.6173 14.9328C12.4679 14.8849 12.3284 14.771 12.0502 14.5432C11.5228 14.1123 11.2594 13.8968 11.0283 13.8663C10.8839 13.8467 10.7368 13.8657 10.6021 13.9214C10.4675 13.9771 10.3499 14.0674 10.2614 14.1833C10.1195 14.369 10.0856 14.7074 10.0179 15.3851C9.98243 15.7434 9.96427 15.9225 9.89245 16.062C9.80098 16.2397 9.64817 16.3781 9.46238 16.4517C9.31627 16.5094 9.13632 16.5094 8.77642 16.5094H7.73302C7.37311 16.5094 7.19316 16.5094 7.04788 16.4517C6.86178 16.3783 6.70866 16.2398 6.61698 16.062C6.54516 15.9225 6.527 15.7434 6.49151 15.3851C6.42382 14.7083 6.38998 14.3698 6.248 14.1833C6.15961 14.0676 6.04219 13.9773 5.90766 13.9216C5.77312 13.866 5.62625 13.8469 5.48196 13.8663C5.25 13.8968 4.98667 14.1123 4.4592 14.5432C4.18101 14.7718 4.04151 14.8857 3.8921 14.9336C3.70181 14.9944 3.49592 14.9841 3.31262 14.9047C3.16816 14.842 3.04021 14.7149 2.78679 14.4606L2.04882 13.7226C1.79458 13.4684 1.66745 13.3413 1.60472 13.1968C1.52528 13.0135 1.51502 12.8076 1.57583 12.6173C1.6237 12.4679 1.73762 12.3284 1.96545 12.0502C2.39717 11.5228 2.61262 11.2594 2.64316 11.0275C2.66258 10.8832 2.64348 10.7363 2.58781 10.6018C2.53214 10.4672 2.44188 10.3498 2.32618 10.2614C2.14045 10.1195 1.80118 10.0856 1.12347 10.0179C0.766038 9.98243 0.58691 9.96427 0.44658 9.89245C0.269556 9.80066 0.131742 9.64789 0.0586086 9.46238C7.99532e-08 9.31627 0 9.13632 0 8.77642V7.73302C0 7.37311 -5.53522e-08 7.19316 0.057783 7.04788C0.131157 6.86178 0.269611 6.70866 0.447406 6.61698C0.58691 6.54516 0.766038 6.527 1.12429 6.49151C1.80118 6.42382 2.14045 6.38998 2.32618 6.248C2.44203 6.1597 2.53245 6.04233 2.58827 5.90779C2.64409 5.77324 2.66331 5.62633 2.64399 5.48196C2.61262 5.25 2.39634 4.98667 1.96545 4.45837C1.73762 4.18019 1.6237 4.04151 1.57583 3.89127C1.51502 3.70098 1.52528 3.49509 1.60472 3.31179C1.66745 3.16816 1.79458 3.04021 2.04882 2.78597L2.78679 2.04882C3.04104 1.79458 3.16816 1.66663 3.31262 1.60472C3.49592 1.52528 3.70181 1.51502 3.8921 1.57583C4.04151 1.6237 4.18101 1.73762 4.4592 1.96545C4.98667 2.39634 5.25 2.61179 5.48113 2.64316C5.62577 2.66279 5.77302 2.64371 5.90788 2.58789C6.04274 2.53206 6.16038 2.44147 6.24882 2.32535C6.38915 2.13962 6.42382 1.80118 6.49151 1.12347C6.527 0.766038 6.54516 0.58691 6.61698 0.44658C6.70861 0.269245 6.8614 0.131121 7.04705 0.057783C7.19316 -5.53522e-08 7.37311 0 7.73302 0H8.77642C9.13632 0 9.31627 -5.53522e-08 9.46156 0.057783C9.64765 0.131157 9.80077 0.269611 9.89245 0.447406ZM8.25472 11.5566C9.13043 11.5566 9.97028 11.2087 10.5895 10.5895C11.2087 9.97028 11.5566 9.13043 11.5566 8.25472C11.5566 7.379 11.2087 6.53915 10.5895 5.91993C9.97028 5.30071 9.13043 4.95283 8.25472 4.95283C7.379 4.95283 6.53915 5.30071 5.91993 5.91993C5.30071 6.53915 4.95283 7.379 4.95283 8.25472C4.95283 9.13043 5.30071 9.97028 5.91993 10.5895C6.53915 11.2087 7.379 11.5566 8.25472 11.5566Z" fill="#9EA2AE"/>
</svg>
