<svg width="27" height="30" viewBox="0 0 27 30" fill="none" xmlns="http://www.w3.org/2000/svg">
<path d="M17.4819 13.2722C19.4316 11.9742 20.7176 9.75897 20.7176 7.24138C20.7176 3.24233 17.4753 0 13.4762 0C9.47716 0 6.23483 3.24233 6.23483 7.24138C6.23483 9.75897 7.52078 11.9742 9.47052 13.2722C9.47052 13.2722 9.47112 13.2728 9.47172 13.2728C9.47112 13.2728 9.47112 13.2722 9.47112 13.2722C4.80405 14.6789 1.17009 18.4667 0 23.2322L0.000603405 23.2328C0.191293 23.4627 0.389224 23.6872 0.591379 23.9074C0.640258 23.9611 0.691551 24.0124 0.741638 24.0649C0.897327 24.2303 1.05483 24.3932 1.21655 24.5525C1.28353 24.6183 1.35172 24.6816 1.41991 24.7462C1.56957 24.8886 1.72103 25.0292 1.87552 25.1662C1.95216 25.2338 2.03 25.3008 2.10724 25.3672C2.25871 25.4969 2.41198 25.6242 2.56828 25.7485C2.65034 25.8143 2.73302 25.8789 2.81569 25.9434C2.97379 26.0653 3.13431 26.1836 3.29664 26.2995C3.38052 26.3592 3.46319 26.4202 3.54828 26.4787C3.71966 26.597 3.89405 26.7104 4.06965 26.8227C4.14871 26.8728 4.22595 26.9247 4.3056 26.9741C4.50836 27.0991 4.71474 27.2185 4.92293 27.3356C4.97784 27.3664 5.03155 27.3996 5.08707 27.4297C5.35621 27.577 5.62957 27.7182 5.90716 27.8516C5.91379 27.8546 5.92103 27.8576 5.92767 27.8606C6.19259 27.9873 6.46172 28.1074 6.73388 28.2209C6.81836 28.2565 6.90465 28.2878 6.98974 28.3216C7.18647 28.4001 7.38319 28.4773 7.58353 28.5485C7.68974 28.5866 7.79716 28.6209 7.90397 28.6572C8.08621 28.7187 8.26965 28.7784 8.45431 28.8334C8.57138 28.8684 8.68905 28.9009 8.80733 28.9335C8.98595 28.983 9.16578 29.0301 9.34741 29.0741C9.46991 29.1037 9.59302 29.1321 9.71672 29.1592C9.89836 29.1991 10.0806 29.2353 10.2641 29.2691C10.3884 29.292 10.5121 29.3155 10.6376 29.3354C10.8271 29.3662 11.0178 29.3922 11.2091 29.4169C11.3297 29.4326 11.4498 29.4501 11.5711 29.4628C11.7823 29.4857 11.9953 29.502 12.2084 29.5171C12.3116 29.5243 12.4135 29.5352 12.5167 29.5406C12.8347 29.5587 13.154 29.569 13.4762 29.569C13.7984 29.569 14.1177 29.5587 14.4357 29.5418C14.5389 29.5364 14.6415 29.5255 14.7441 29.5183C14.9577 29.5032 15.1707 29.4869 15.3813 29.464C15.5026 29.4507 15.6227 29.4338 15.7434 29.4181C15.9347 29.3934 16.1253 29.3674 16.3148 29.3366C16.4397 29.3161 16.5641 29.2932 16.6884 29.2703C16.8718 29.2365 17.0547 29.2003 17.2357 29.1604C17.3594 29.1333 17.4825 29.1049 17.605 29.0753C17.786 29.0313 17.9659 28.9842 18.1451 28.9347C18.2628 28.9022 18.381 28.8696 18.4981 28.8346C18.6834 28.7791 18.8662 28.7193 19.0484 28.6584C19.1553 28.6222 19.2633 28.5878 19.3689 28.5497C19.5686 28.4779 19.7659 28.4013 19.9627 28.3228C20.0478 28.2891 20.1341 28.2571 20.2185 28.2221C20.4895 28.1086 20.7574 27.9897 21.0211 27.863C21.029 27.8594 21.0374 27.8558 21.0453 27.8522C21.3228 27.7188 21.5962 27.5776 21.8653 27.4303C21.9209 27.4002 21.9746 27.367 22.0295 27.3362C22.2377 27.2191 22.4441 27.0997 22.6468 26.9747C22.7265 26.9259 22.8043 26.874 22.8828 26.8233C23.0584 26.711 23.2328 26.597 23.4041 26.4793C23.4886 26.4208 23.5719 26.3604 23.6558 26.3001C23.8181 26.1836 23.9786 26.0653 24.1367 25.9441C24.22 25.8801 24.3021 25.8149 24.3841 25.7491C24.5398 25.6248 24.6937 25.4975 24.8452 25.3678C24.923 25.3014 25.0009 25.2344 25.0769 25.1668C25.2314 25.0298 25.3828 24.8892 25.5325 24.7468C25.6001 24.6822 25.6689 24.6183 25.7359 24.5531C25.8976 24.3938 26.0557 24.2309 26.2108 24.0655C26.2603 24.0124 26.3116 23.9611 26.361 23.908C26.5632 23.6878 26.7611 23.4633 26.9518 23.2334L26.9524 23.2328C25.7829 18.4667 22.149 14.6789 17.4819 13.2722Z" fill="#9EA2AE"/>
</svg>
