<svg width="307" height="336" viewBox="0 0 307 336" fill="none" xmlns="http://www.w3.org/2000/svg">
<path d="M293 56.5V0H127.5C86.3006 0 50.6669 28.3333 38 42.5C11.6 63.3 1.66667 103.833 0 121.5V184.5C1.6 225.7 35.6669 260.667 52.5004 273L139.5 327.5C149.1 334.3 157.5 335.667 160.5 335.5C192.5 319.5 248.833 279.167 273 261C299.4 242.6 306.667 216.667 307 206V121.5H136.5V175H252V203.5C249.6 213.1 230.667 228.167 221.5 234.5L155.5 276.5L97.5004 238.5C60.3004 217.3 52.0004 185.667 52.5004 172.5V121.5C65.7004 74.3 108 58.5 127.5 56.5H293Z" fill="url(#paint0_linear_43_12)"/>
<defs>
<linearGradient id="paint0_linear_43_12" x1="153.5" y1="0" x2="153.5" y2="335.513" gradientUnits="userSpaceOnUse">
<stop stop-color="#8536F8"/>
<stop offset="1" stop-color="#541AC6"/>
</linearGradient>
</defs>
</svg>
